<?xml version="1.0" standalone="no"?>
<!DOCTYPE svg PUBLIC "-//W3C//DTD SVG 20010904//EN"
 "http://www.w3.org/TR/2001/REC-SVG-20010904/DTD/svg10.dtd">
<svg version="1.0" xmlns="http://www.w3.org/2000/svg"
 width="705.000000pt" height="798.000000pt" viewBox="0 0 705.000000 798.000000"
 preserveAspectRatio="xMidYMid meet">
<metadata>
Created by potrace 1.10, written by Peter Selinger 2001-2011
</metadata>
<g transform="translate(0.000000,798.000000) scale(0.100000,-0.100000)"
fill="#000000" stroke="none">
<path d="M2380 7793 c-47 -20 -64 -87 -30 -118 11 -10 20 -26 20 -36 0 -15
-102 -224 -115 -238 -3 -2 -25 14 -51 35 -90 76 -199 156 -238 175 -41 19 -76
25 -76 12 2 -20 27 -100 38 -120 6 -12 12 -29 12 -38 0 -9 6 -29 14 -43 20
-40 37 -91 48 -147 5 -27 14 -56 20 -62 8 -10 102 -13 409 -13 l398 0 15 29
c9 16 20 46 25 67 28 107 80 263 102 307 11 21 4 37 -16 37 -44 0 -199 -106
-285 -194 -24 -25 -49 -46 -55 -46 -14 0 -125 232 -125 263 0 14 5 29 10 32
33 20 -19 93 -71 100 -19 2 -41 2 -49 -2z"/>
<path d="M3997 7102 c-11 -12 -17 -41 -19 -97 l-3 -80 -65 -5 c-70 -6 -110
-25 -110 -52 0 -25 31 -38 93 -38 l54 0 19 -61 c10 -33 29 -69 40 -80 l21 -20
22 36 c11 20 21 41 21 47 0 29 41 66 82 72 106 17 87 81 -33 109 l-49 12 0 58
c0 60 -22 117 -46 117 -6 0 -18 -8 -27 -18z"/>
<path d="M2935 7021 c-35 -14 -89 -32 -120 -41 -16 -5 -61 -20 -99 -34 -57
-21 -86 -26 -166 -26 -90 0 -140 -9 -235 -41 -16 -6 -44 -14 -61 -18 -58 -15
-229 -104 -314 -164 -47 -33 -87 -63 -90 -66 -3 -4 -32 -28 -65 -53 -105 -81
-259 -253 -347 -388 -93 -143 -181 -324 -218 -455 -24 -79 -40 -133 -49 -160
-22 -68 -41 -143 -41 -166 0 -13 -7 -57 -15 -99 -30 -158 -40 -289 -40 -545 0
-255 10 -376 41 -535 40 -201 55 -268 90 -397 42 -156 45 -165 90 -283 7 -19
23 -66 35 -103 12 -37 26 -70 30 -73 5 -3 9 -13 9 -22 0 -17 15 -51 136 -298
41 -83 74 -158 74 -166 0 -17 -41 -48 -64 -48 -8 0 -37 -22 -63 -48 -77 -78
-93 -170 -47 -267 29 -62 105 -135 140 -135 13 0 33 -9 44 -20 19 -19 19 -20
0 -62 -10 -24 -54 -83 -97 -132 -77 -88 -136 -162 -160 -201 -24 -39 -76 -151
-84 -180 -53 -195 -68 -320 -50 -424 12 -72 10 -77 -46 -106 -69 -35 -135
-119 -151 -192 -26 -116 63 -274 191 -339 l49 -25 1437 5 c1330 5 1440 7 1472
23 45 22 105 78 137 128 24 36 26 49 27 145 l0 105 -38 57 c-21 32 -61 74 -88
94 l-50 36 8 77 c18 172 6 319 -34 426 -47 128 -112 227 -242 368 -82 89 -101
116 -106 150 -8 44 9 67 48 67 29 0 105 49 132 84 29 38 55 107 55 146 0 73
-93 188 -183 228 l-47 21 0 102 c0 95 -18 239 -41 334 -6 22 -14 56 -19 75 -4
19 -18 60 -30 90 -37 96 -51 134 -57 155 -11 41 -86 197 -138 290 -19 33 -37
67 -42 75 -4 8 -26 43 -50 78 -24 35 -43 65 -43 68 0 3 -311 423 -346 467 -8
9 -14 19 -14 22 0 2 -13 24 -30 48 -53 79 -91 166 -88 200 3 32 3 32 73 38 67
7 109 19 223 69 l53 23 45 -22 c47 -24 114 -86 114 -105 0 -14 95 -105 127
-123 207 -115 482 -36 610 176 61 101 73 157 73 339 l0 168 -372 365 c-205
201 -434 423 -508 495 -84 80 -136 138 -138 152 -2 13 4 39 12 57 9 18 16 41
16 52 0 10 7 50 15 88 17 82 19 171 4 180 -9 6 -40 -5 -134 -45 -38 -16 -50
-17 -72 -9 -22 8 -23 13 -23 134 0 135 -1 137 -55 116z m-103 -228 c5 -21 -24
-168 -46 -233 -37 -108 -84 -210 -112 -241 -32 -35 -18 -40 94 -34 59 4 132
11 162 17 127 24 114 27 193 -48 40 -37 187 -181 328 -319 140 -137 316 -309
391 -381 162 -156 198 -203 198 -253 0 -70 -30 -231 -50 -270 -38 -76 -160
-151 -245 -151 -35 0 -126 28 -171 52 -17 9 -44 34 -59 55 -31 40 -70 80 -173
177 l-63 60 -52 -28 c-29 -15 -59 -30 -67 -35 -45 -24 -64 -32 -119 -51 -116
-39 -363 -22 -414 29 -6 6 -17 11 -23 11 -34 0 -214 206 -214 244 0 6 -4 16
-9 21 -22 23 -50 138 -56 233 -9 119 -21 143 -60 114 -40 -30 -55 -94 -55
-233 0 -99 4 -139 20 -185 34 -103 49 -141 71 -180 11 -22 30 -56 40 -76 10
-21 28 -55 38 -75 10 -21 28 -54 40 -73 11 -19 25 -44 31 -55 6 -11 19 -33 30
-50 11 -16 23 -37 27 -45 4 -8 26 -43 50 -78 24 -35 43 -65 43 -67 0 -2 19
-32 43 -67 24 -35 46 -70 50 -78 11 -25 28 -49 105 -152 39 -53 72 -101 72
-105 0 -5 9 -16 19 -25 28 -24 250 -364 296 -453 14 -27 29 -57 34 -65 5 -8
17 -33 26 -55 10 -22 22 -49 28 -59 5 -11 13 -31 17 -45 5 -14 18 -51 29 -81
45 -118 72 -256 91 -465 6 -68 6 -103 -2 -112 -8 -10 -158 -13 -754 -13 l-744
0 -5 28 c-3 15 -10 43 -15 62 -5 19 -11 46 -14 60 -4 27 -21 78 -41 125 -7 17
-20 68 -30 115 -15 79 -24 117 -55 245 -7 28 -16 68 -20 90 -4 22 -13 63 -20
90 -31 129 -39 167 -54 265 -9 58 -16 128 -16 156 0 28 -7 73 -15 100 -21 71
-21 727 0 829 8 38 15 84 15 101 0 37 35 207 46 226 4 7 11 30 16 53 24 130
37 170 89 280 16 33 29 64 29 69 0 13 98 206 123 239 12 18 27 39 32 49 37 64
99 142 155 196 70 68 114 96 135 88 17 -6 36 17 69 83 31 62 72 117 136 181
47 47 114 102 140 114 8 4 53 27 100 51 93 49 115 54 122 28z m-624 -192 c2
-13 1 -35 -3 -49 -9 -36 -25 -10 -25 41 0 42 22 48 28 8z m-302 -98 c12 -38
92 -204 117 -244 11 -18 4 -49 -12 -49 -17 0 -71 78 -116 169 -50 99 -53 115
-27 130 24 15 32 13 38 -6z m-231 -233 c6 -11 34 -58 63 -106 28 -47 52 -88
52 -91 0 -4 6 -14 13 -22 14 -18 41 -90 35 -96 -14 -14 -50 15 -82 65 -21 32
-41 60 -45 62 -13 6 -98 123 -105 146 -15 46 48 84 69 42z m-160 -302 c36 -49
84 -117 157 -224 31 -46 37 -84 13 -84 -8 0 -15 3 -15 8 -1 4 -30 39 -66 77
-36 39 -79 89 -96 113 -17 23 -35 42 -40 42 -4 0 -8 6 -8 14 0 7 -7 19 -15 26
-27 22 -13 80 20 80 6 0 28 -24 50 -52z m-73 -355 c130 -148 168 -198 168
-223 0 -12 -4 -20 -9 -18 -5 2 -49 41 -98 88 -49 47 -112 106 -140 131 -28 25
-54 55 -57 66 -9 29 10 74 28 67 8 -3 57 -53 108 -111z m-110 -294 c51 -49
121 -117 154 -149 34 -33 64 -69 67 -80 7 -26 -19 -39 -36 -18 -7 8 -39 36
-72 61 -237 184 -251 199 -227 252 6 14 14 25 16 25 2 0 46 -41 98 -91z m-92
-305 c30 -24 106 -83 168 -130 87 -67 112 -92 112 -110 0 -13 -5 -24 -10 -24
-10 0 -158 96 -170 110 -3 3 -44 32 -93 64 -86 58 -107 85 -93 121 9 24 27 17
86 -31z m-10 -349 c44 -30 82 -55 84 -55 11 0 170 -117 207 -152 24 -23 26
-53 3 -44 -16 6 -177 102 -233 138 -14 9 -46 27 -70 40 -23 12 -54 35 -67 51
-24 29 -33 77 -14 77 6 0 46 -25 90 -55z m-20 -310 c7 -8 17 -15 22 -15 5 0
35 -20 67 -44 32 -25 75 -54 97 -66 21 -12 53 -30 69 -41 17 -10 37 -22 45
-26 32 -14 70 -47 70 -60 0 -30 -44 -13 -225 87 -136 74 -217 143 -201 169 10
16 41 14 56 -4z m70 -387 c3 -4 56 -45 117 -91 122 -91 253 -204 253 -218 0
-19 -43 -8 -83 21 -23 17 -80 58 -127 91 -135 97 -232 201 -215 229 6 10 37
-8 55 -32z m197 -523 c136 -94 282 -206 297 -227 10 -14 12 -26 6 -32 -5 -5
-42 16 -97 56 -48 36 -108 76 -133 90 -118 63 -189 129 -176 164 5 14 9 14 25
3 11 -8 46 -32 78 -54z m2325 -777 c25 -33 23 -80 -7 -112 l-24 -26 -1087 2
-1086 3 -24 28 c-40 47 -24 121 29 129 12 2 508 2 1102 1 l1079 -2 18 -23z
m-821 -338 c19 -11 21 -17 15 -67 -3 -30 -13 -68 -21 -83 -8 -16 -15 -35 -15
-43 0 -14 -57 -127 -69 -137 -3 -3 -23 -25 -44 -48 -54 -62 -282 -252 -301
-252 -3 0 -24 -12 -48 -27 -70 -45 -80 -51 -153 -86 -83 -40 -131 -59 -205
-80 -228 -64 -341 -79 -575 -75 l-190 3 0 85 c1 231 57 353 265 579 96 105
106 119 140 186 l26 50 89 6 c169 10 1062 1 1086 -11z m962 -1090 c33 -16 71
-74 63 -96 -5 -13 -46 -14 -318 -9 -172 3 -539 2 -814 -2 -473 -8 -503 -9
-523 -27 -12 -11 -21 -31 -21 -47 0 -32 -44 -79 -74 -79 -11 0 -45 -6 -75 -14
-167 -41 -202 -45 -543 -57 -290 -10 -352 -10 -380 2 -49 20 -67 47 -68 100 0
42 4 50 51 98 29 28 57 51 63 51 6 0 27 14 45 31 19 17 46 36 60 42 31 14 952
25 1891 22 490 -1 621 -4 643 -15z"/>
<path d="M2931 5985 c-37 -43 -40 -83 -10 -132 37 -59 117 -79 177 -43 62 38
66 118 9 178 -28 29 -37 32 -88 32 -53 0 -59 -3 -88 -35z"/>
<path d="M3817 5312 c-26 -29 -23 -103 6 -130 70 -66 157 38 103 121 -15 21
-26 27 -56 27 -23 0 -43 -7 -53 -18z"/>
<path d="M3570 6361 c-20 -3 -36 -13 -38 -21 -2 -14 207 -226 634 -640 108
-105 146 -149 173 -200 36 -70 33 -47 41 -357 0 -10 223 -13 1079 -13 851 0
1081 -3 1089 -12 7 -9 11 -633 11 -1940 2 -2150 6 -2017 -66 -2126 -37 -56
-98 -113 -148 -138 -92 -47 -67 -46 -995 -49 -481 -1 -882 -5 -892 -9 -9 -4
-19 -19 -23 -34 -4 -15 -13 -35 -22 -44 -29 -32 -13 -52 47 -60 30 -4 444 -8
920 -9 964 -2 858 -9 1016 68 138 68 251 216 296 387 17 66 18 176 18 2405 0
2299 0 2337 -20 2405 -11 38 -24 74 -30 80 -5 5 -10 16 -10 24 0 21 -84 125
-137 171 -27 23 -73 53 -103 68 -115 55 -77 53 -1495 52 -720 -1 -1326 -5
-1345 -8z m2534 -399 c42 -26 96 -80 96 -96 0 -5 7 -17 16 -27 12 -13 16 -38
17 -91 0 -88 -24 -141 -89 -195 -97 -81 -194 -83 -305 -6 -61 43 -119 133
-119 186 0 77 73 196 144 235 67 37 177 34 240 -6z"/>
<path d="M5893 5793 c-17 -11 -23 -25 -23 -52 0 -79 92 -112 173 -62 44 27 55
65 29 100 -17 23 -27 26 -88 28 -50 2 -75 -2 -91 -14z"/>
<path d="M5037 4718 c-62 -62 -153 -158 -202 -213 -157 -178 -150 -171 -177
-153 -12 9 -52 43 -88 77 -36 33 -73 60 -82 61 -22 0 -40 -62 -28 -94 11 -30
199 -226 216 -226 8 0 89 77 182 172 92 95 218 223 280 284 61 62 112 120 112
128 0 22 -42 64 -73 71 -23 6 -38 -5 -140 -107z"/>
<path d="M4550 4771 c-75 -28 -109 -50 -159 -101 -72 -74 -131 -210 -131 -303
0 -45 27 -168 39 -180 6 -6 11 -17 11 -24 0 -21 75 -116 117 -149 81 -63 175
-97 273 -97 73 0 86 4 156 39 128 66 201 152 243 285 24 78 3 201 -37 207 -26
4 -80 -52 -140 -143 -25 -38 -67 -91 -92 -116 -51 -51 -147 -119 -167 -119
-17 0 -132 118 -191 195 -25 33 -59 73 -74 89 -15 17 -28 38 -28 49 0 19 79
109 112 128 21 11 37 3 120 -58 31 -24 63 -43 72 -43 9 0 24 17 35 38 11 21
37 51 59 66 22 15 64 55 93 89 29 34 60 68 68 75 14 12 13 16 -12 36 -15 12
-49 30 -75 39 -64 23 -229 22 -292 -2z"/>
<path d="M5455 4609 c-33 -40 -31 -84 6 -111 24 -18 49 -19 366 -22 235 -2
345 1 354 8 44 35 50 91 14 130 l-24 26 -345 0 -344 0 -27 -31z"/>
<path d="M5521 4150 c-94 -10 -130 -82 -72 -141 l29 -29 346 0 345 0 20 26
c11 14 23 34 26 45 8 25 -23 80 -54 95 -24 12 -539 16 -640 4z"/>
<path d="M4619 3679 c-127 -19 -270 -132 -319 -249 -23 -56 -25 -241 -4 -304
10 -28 24 -58 31 -67 7 -8 13 -20 13 -26 0 -32 174 -163 216 -163 8 0 37 -7
65 -16 37 -12 53 -14 63 -5 11 9 13 70 10 319 -1 169 -3 353 -3 408 -1 72 -5
103 -13 106 -7 2 -34 1 -59 -3z"/>
<path d="M641 3644 c-40 -68 -16 -211 41 -240 27 -14 30 -13 53 12 33 35 48
96 42 163 -7 66 -36 101 -83 101 -26 0 -36 -6 -53 -36z"/>
<path d="M5588 3583 c-116 -4 -117 -4 -142 -34 -33 -39 -33 -61 2 -100 l29
-32 351 -4 352 -3 20 32 c23 38 25 57 8 93 -23 51 -47 55 -285 53 -120 -1
-271 -4 -335 -5z"/>
<path d="M415 3382 c-11 -4 -39 -19 -62 -35 -56 -35 -57 -64 -5 -106 68 -57
120 -58 219 -6 51 27 53 27 79 11 18 -12 23 -23 19 -34 -48 -116 -55 -169 -30
-230 18 -41 52 -82 70 -82 20 0 63 54 75 96 10 34 9 54 -5 117 -9 43 -21 80
-26 83 -15 9 -10 33 10 43 14 8 31 4 70 -14 56 -27 134 -35 168 -17 23 13 83
78 83 92 0 5 -21 26 -46 46 -40 34 -53 38 -98 38 -51 0 -88 -15 -152 -61 -54
-39 -170 -18 -245 44 -18 14 -98 24 -124 15z"/>
<path d="M5441 3054 c-27 -34 -27 -65 2 -96 l22 -26 354 -4 c331 -4 356 -3
372 13 29 29 33 65 12 101 l-19 33 -361 3 -361 2 -21 -26z"/>
<path d="M4726 2582 c-10 -16 -11 -163 -2 -294 7 -102 6 -131 -5 -144 -11 -14
-39 -16 -219 -13 -113 2 -211 0 -218 -5 -30 -19 19 -150 96 -256 58 -81 240
-150 357 -136 176 20 320 148 367 326 28 106 20 193 -31 300 -21 45 -155 180
-179 180 -10 0 -23 5 -29 11 -9 9 -30 16 -109 36 -12 3 -24 1 -28 -5z"/>
<path d="M5513 2513 c-42 -3 -56 -9 -73 -30 -28 -36 -25 -69 9 -104 l29 -29
331 0 c186 0 341 4 355 10 32 12 60 64 52 96 -4 14 -15 33 -26 44 -19 19 -33
20 -322 18 -167 -1 -326 -3 -355 -5z"/>
<path d="M5496 2010 c-74 -14 -97 -74 -50 -129 l26 -31 348 0 349 0 20 26 c11
14 23 35 26 46 10 28 -12 73 -41 87 -28 13 -612 14 -678 1z"/>
<path d="M5615 1432 c-148 -3 -150 -3 -172 -29 -29 -33 -29 -63 0 -96 l23 -27
351 0 c384 0 375 -1 388 58 7 32 -8 80 -27 87 -18 6 -382 11 -563 7z"/>
</g>
</svg>
