<?xml version="1.0" standalone="no"?>
<!DOCTYPE svg PUBLIC "-//W3C//DTD SVG 20010904//EN"
 "http://www.w3.org/TR/2001/REC-SVG-20010904/DTD/svg10.dtd">
<svg version="1.0" xmlns="http://www.w3.org/2000/svg"
 width="235.000000pt" height="266.000000pt" viewBox="0 0 235.000000 266.000000"
 preserveAspectRatio="xMidYMid meet">
<metadata>
Created by potrace 1.10, written by Peter Selinger 2001-2011
</metadata>
<g transform="translate(0.000000,266.000000) scale(0.050000,-0.050000)"
fill="#ffffff" stroke="none">
<path d="M1561 5191 c-17 -20 -18 -40 -5 -64 27 -47 -32 -173 -73 -157 -25 9
-25 6 -1 -23 15 -19 17 -28 4 -21 -13 9 -27 0 -32 -21 -4 -19 -6 -5 -3 32 5
59 -5 73 -87 124 -117 75 -120 69 -64 -111 l47 -150 283 0 282 0 45 152 c25
84 42 156 38 160 -16 16 -144 -66 -140 -89 4 -14 -2 -21 -12 -15 -10 6 -30 -2
-43 -18 -14 -17 -31 -30 -39 -30 -21 0 -90 158 -75 173 22 22 -26 87 -64 87
-21 0 -48 -13 -61 -29z m103 -98 c8 -38 2 -46 -27 -38 -37 10 -49 46 -24 72
25 25 42 13 51 -34z m108 -161 c30 11 33 9 14 -12 -13 -14 -49 -28 -80 -31
-31 -2 -69 -8 -86 -12 -16 -4 -28 4 -25 18 3 14 -8 25 -25 25 -16 0 -30 9 -30
20 0 11 7 18 15 15 8 -3 16 3 18 13 9 47 60 47 109 1 35 -35 63 -46 90 -37z"/>
<path d="M2648 4704 c-8 -39 -30 -64 -70 -79 -75 -28 -74 -58 2 -75 33 -7 60
-25 60 -39 0 -61 58 -77 83 -23 13 29 33 52 45 52 12 0 35 9 51 19 37 23 -6
81 -59 81 -20 0 -35 11 -35 25 4 107 -57 138 -77 39z"/>
<path d="M1900 4677 c-27 -11 -108 -29 -180 -39 -187 -27 -267 -56 -241 -87
13 -16 53 -22 109 -16 50 5 93 -1 101 -13 8 -13 1 -17 -17 -10 -21 8 -41 -11
-64 -66 -56 -130 -132 -148 -116 -28 26 197 -81 180 -330 -51 -150 -138 -253
-274 -232 -306 7 -12 2 -20 -12 -16 -81 17 -203 -498 -203 -855 0 -423 245
-1270 366 -1270 12 0 15 -11 7 -25 -8 -14 -7 -18 2 -10 25 22 30 115 7 115
-10 0 -14 8 -8 18 6 10 -4 23 -21 30 -28 11 -29 17 -5 46 24 29 23 32 -9 20
-20 -7 -31 -6 -26 4 6 9 -7 33 -28 52 -21 19 -34 43 -28 53 6 9 -4 17 -21 17
-17 0 -31 9 -31 20 0 26 34 26 51 -1 7 -11 29 -15 49 -9 20 6 43 2 50 -11 8
-12 2 -20 -13 -18 -64 9 -83 0 -59 -29 26 -31 108 -59 91 -30 -6 9 5 12 25 6
34 -11 34 -10 1 17 -19 16 -29 34 -23 41 7 6 -7 23 -30 37 -23 15 -42 37 -42
50 0 28 -36 42 -95 37 -50 -4 -57 10 -21 46 19 19 16 24 -12 24 -29 0 -32 6
-15 27 13 15 18 31 12 37 -5 6 4 22 21 36 26 22 29 20 19 -12 -9 -26 -7 -30 5
-13 33 46 193 -93 172 -148 -6 -15 -2 -27 9 -27 10 0 17 -25 15 -55 -5 -75 8
-92 47 -61 29 23 30 22 8 -6 -13 -17 -18 -38 -10 -47 8 -8 6 -13 -5 -10 -43 8
-59 -3 -30 -21 24 -15 25 -26 7 -57 -20 -31 -16 -45 19 -80 42 -42 42 -43 3
-44 -35 0 -34 -3 9 -27 26 -15 62 -23 80 -18 18 4 50 -7 72 -25 22 -17 29 -26
15 -19 -14 7 -25 1 -26 -14 0 -19 -7 -18 -25 5 -29 37 -114 42 -100 6 6 -16
-17 -27 -67 -31 -85 -7 -115 -68 -64 -131 19 -23 20 -28 2 -18 -17 10 -21 5
-12 -17 11 -28 14 -28 36 2 34 46 176 23 157 -25 -10 -27 -5 -28 36 -8 45 22
46 21 10 -7 -21 -17 -45 -26 -54 -21 -8 5 -28 -8 -43 -31 -16 -22 -36 -33 -45
-25 -9 8 -12 2 -6 -15 8 -22 -6 -31 -50 -34 -47 -4 -55 1 -37 19 30 30 30 89
-2 100 -24 8 -27 22 -32 156 -2 42 -11 57 -27 47 -13 -9 -3 13 21 48 50 70 37
82 -34 32 -26 -19 -41 -44 -35 -61 7 -17 3 -24 -10 -16 -13 8 -18 -14 -14 -64
4 -47 15 -75 30 -72 14 2 20 -7 15 -21 -6 -15 12 -39 40 -54 66 -35 65 -45
-19 -137 -67 -74 -91 -118 -51 -94 10 6 24 3 30 -8 7 -10 -6 -15 -29 -11 -66
13 -125 -127 -136 -325 -5 -91 -17 -165 -27 -165 -111 0 -147 -204 -55 -309
l62 -71 1000 0 999 0 59 58 c83 83 82 201 -2 285 -55 55 -60 71 -60 204 -1 96
-13 170 -38 224 -42 93 -211 293 -231 273 -7 -7 -7 3 0 22 7 19 21 34 30 34
128 0 177 205 71 294 -59 48 -70 72 -83 176 -19 166 -105 435 -133 417 -13 -8
-17 -4 -8 10 30 48 -361 643 -412 628 -11 -4 -13 3 -7 14 7 11 -1 46 -17 78
l-30 58 131 35 132 36 67 -78 c59 -68 138 -73 97 -6 -5 7 53 12 129 11 76 -2
128 4 115 13 -13 10 -4 11 20 4 24 -6 49 -3 55 7 17 27 -51 48 -75 24 -60 -60
-172 -24 -283 91 l-108 113 -86 -41 c-180 -85 -321 -73 -425 35 -31 33 -65 55
-74 49 -9 -5 -11 5 -3 24 7 21 5 30 -7 22 -11 -6 -20 3 -19 22 4 182 -66 305
-108 193 -67 -174 61 -462 438 -985 197 -274 342 -554 325 -629 -2 -8 6 -15
16 -15 11 0 15 -12 10 -27 -6 -14 -2 -63 8 -108 29 -132 42 -129 -500 -113
l-489 14 -34 122 c-222 800 -219 1382 9 1843 78 156 205 309 257 309 21 0 40
19 47 46 16 61 144 188 241 238 l78 40 -14 -87 c-8 -48 -36 -126 -63 -174 -27
-49 -49 -92 -49 -96 0 -5 77 -4 171 2 96 5 166 2 160 -8 -6 -9 124 -147 289
-306 322 -309 343 -347 282 -504 -11 -29 -4 -50 26 -77 23 -20 32 -32 19 -26
-22 11 -75 -34 -59 -50 5 -4 -22 -9 -59 -10 -38 -2 -63 6 -57 16 17 27 -57 11
-90 -20 -23 -22 -31 -22 -45 0 -14 21 -20 21 -36 -3 -76 -119 258 -87 366 35
147 165 128 366 -48 531 -78 73 -152 130 -164 128 -13 -3 -24 9 -25 25 -1 17
-15 27 -31 23 -16 -3 -22 1 -13 9 21 21 -187 229 -214 214 -12 -7 -15 -5 -7 4
20 22 -85 132 -110 117 -11 -7 -6 9 11 36 33 52 61 209 43 238 -6 11 -40 7
-80 -10 l-69 -29 0 89 c0 97 -19 107 -120 66z m37 -80 c3 -9 20 -17 37 -17 24
0 28 -14 19 -60 -7 -33 -3 -60 7 -60 37 0 89 -102 61 -119 -20 -13 -20 -18 -1
-24 17 -6 20 -25 10 -56 -8 -25 -20 -37 -27 -26 -7 11 -42 26 -78 34 -46 10
-64 24 -60 48 3 18 -6 31 -19 28 -19 -3 -20 9 -5 46 27 74 24 172 -6 166 -14
-2 -52 9 -84 25 l-59 28 59 12 c65 14 135 2 146 -25z m-493 -177 c8 -38 19
-90 24 -115 10 -49 -12 -70 -82 -77 -75 -8 -139 139 -85 193 22 22 39 49 39
60 0 58 89 5 104 -61z m-176 -172 c20 -50 49 -96 64 -102 19 -7 9 -24 -31 -58
-73 -62 -67 -64 -139 49 -70 110 -74 123 -32 123 16 0 41 18 55 40 34 56 40
52 83 -52z m-94 -164 c64 -108 44 -109 -34 -1 -33 46 -60 76 -60 68 0 -37 130
-191 154 -182 31 12 12 -27 -49 -104 l-36 -46 -75 101 c-106 142 -109 156 -42
211 73 59 81 57 142 -47z m-116 -171 c33 -49 55 -93 49 -99 -6 -6 -4 -22 4
-35 23 -38 25 -159 3 -159 -11 0 -66 51 -122 113 -88 96 -106 108 -127 83 -28
-34 196 -250 235 -226 18 11 15 -32 -12 -166 -8 -41 -19 -34 -122 76 -61 67
-123 118 -137 112 -33 -12 -57 50 -27 69 13 8 18 29 12 46 -7 19 8 56 36 89
37 44 43 63 25 81 -17 17 -14 23 13 23 28 0 32 6 15 26 -16 19 -12 26 13 28
19 1 61 -33 94 -75 33 -43 68 -78 77 -78 9 -1 -11 31 -45 70 -56 63 -78 109
-53 109 5 0 36 -39 69 -87z m-65 -208 l77 -95 -95 79 c-91 76 -115 111 -77
111 9 0 52 -43 95 -95z m1775 -77 c24 -9 31 -37 29 -105 l-4 -93 -8 80 c-4 44
-16 88 -25 98 -10 10 -13 0 -7 -25 12 -43 -20 -60 -43 -23 -7 11 -3 20 8 20
11 0 16 14 9 30 -12 33 -6 36 41 18z m-1968 -68 c0 -22 8 -40 18 -40 29 0 224
-160 215 -176 -4 -8 0 -32 10 -54 16 -37 17 -36 9 5 -4 25 -2 49 6 54 8 4 16
-24 19 -65 3 -40 -1 -66 -9 -59 -8 8 -27 -1 -43 -20 -15 -19 -23 -25 -17 -12
7 13 -50 70 -128 130 -125 95 -173 157 -122 157 10 0 14 27 9 60 -5 35 -1 60
12 60 11 0 21 -18 21 -40z m218 -149 c5 -11 -38 19 -95 66 -57 48 -103 96
-103 107 0 23 184 -139 198 -173z m1175 -1 c0 -17 -18 -31 -41 -31 -41 -2 -41
-2 -3 -17 37 -14 36 -16 -11 -25 -34 -7 -51 -1 -51 16 0 15 8 27 18 27 9 0 12
9 5 20 -7 11 1 15 17 8 16 -6 35 -1 42 11 18 29 24 26 24 -9z m-1203 -207
c-12 -12 -210 138 -210 159 0 10 49 -20 109 -66 60 -47 105 -88 101 -93z
m1013 157 c22 0 34 -9 27 -20 -7 -11 -1 -21 14 -22 14 -1 -14 -13 -63 -26 -48
-13 -92 -35 -97 -50 -6 -17 0 -22 13 -14 13 8 23 5 23 -7 0 -27 -34 -27 -50
-1 -7 11 -21 20 -31 20 -28 0 -23 -87 6 -120 14 -16 5 -12 -19 8 -25 20 -44
42 -43 49 6 45 -5 71 -19 49 -11 -17 -23 -6 -37 33 -25 66 67 107 130 56 25
-21 28 -20 18 9 -14 36 18 58 62 44 14 -4 44 -8 66 -8z m-1231 -53 c-7 -16 -3
-24 8 -17 11 7 79 -26 150 -73 129 -85 130 -86 130 -178 0 -52 6 -134 12 -183
13 -96 -16 -133 -74 -92 -21 15 -18 17 12 7 51 -17 29 1 -120 99 -149 99 -155
107 -109 156 37 39 38 39 139 -26 56 -36 106 -60 112 -55 14 14 -36 95 -58 95
-9 0 -56 27 -104 60 -102 70 -110 72 -110 25 1 -26 5 -28 17 -9 13 21 21 20
40 -3 19 -23 15 -28 -25 -28 -56 0 -68 37 -56 180 5 54 16 90 27 83 11 -7 15
-25 9 -41z m1234 -382 c-3 -12 13 -16 35 -11 26 7 39 1 39 -19 0 -20 -20 -29
-60 -27 -49 2 -60 11 -60 49 0 29 10 43 25 37 14 -5 23 -18 21 -29z m-1036
-141 c-9 -10 -164 91 -180 117 -8 12 31 -8 86 -44 56 -37 98 -70 94 -73z
m-145 28 c-6 -10 -1 -12 10 -5 29 18 165 -64 165 -99 0 -15 10 -28 21 -28 12
0 16 -9 9 -20 -7 -11 -5 -20 5 -20 9 0 18 -16 20 -35 12 -113 21 -135 52 -129
18 3 33 -4 33 -15 0 -31 -40 -18 -135 45 -47 31 -81 64 -75 73 12 21 -107 125
-128 112 -9 -5 -16 2 -16 15 -1 13 -10 62 -21 108 l-20 84 45 -34 c25 -19 41
-42 35 -52z m1535 -470 c0 -20 13 -48 28 -60 16 -13 25 -39 22 -58 -4 -19 -8
-41 -8 -50 -1 -9 -11 -11 -22 -4 -11 7 -20 -2 -20 -20 0 -25 8 -27 40 -10 53
28 75 -21 43 -92 -13 -28 -18 -72 -11 -99 10 -38 4 -49 -22 -49 -30 0 -31 -4
-7 -33 25 -31 23 -31 -17 -6 -31 19 -38 34 -24 51 13 16 13 29 -1 37 -14 9
-15 26 -2 48 11 21 11 47 0 64 -25 39 -24 134 1 149 11 7 20 21 20 32 0 11 -8
15 -18 9 -20 -12 -65 99 -47 117 23 24 45 11 45 -26z m171 -557 l-1 -75 -730
0 c-717 0 -730 1 -730 40 0 38 14 40 290 41 887 3 1162 10 1150 29 -7 12 -23
15 -34 7 -13 -8 -16 -4 -8 10 31 49 64 22 63 -52z m-875 -135 c-34 -19 -70
-24 -100 -14 -25 8 -71 14 -101 13 -30 -2 -55 4 -55 12 0 8 70 15 155 16 147
2 152 0 101 -27z m790 -28 c12 -12 17 -22 10 -22 -31 0 63 -186 130 -259 42
-44 71 -81 64 -81 -6 0 3 -27 19 -59 37 -71 42 -150 8 -129 -16 10 -18 5 -6
-13 50 -81 2 -224 -69 -205 -22 5 -35 21 -30 35 12 30 -697 40 -753 11 -20
-11 -52 -8 -86 10 -30 16 -49 20 -42 9 13 -22 -160 -17 -182 5 -7 7 8 24 33
37 25 13 63 41 86 62 22 20 55 37 75 37 19 0 42 12 51 27 9 15 45 43 81 61 36
18 65 42 65 53 0 10 7 18 15 16 36 -8 85 30 85 65 0 21 8 38 18 38 10 0 14 18
8 40 -7 26 -1 40 17 40 21 1 20 5 -3 20 -17 11 -20 20 -7 20 24 0 26 34 4 70
-10 17 -10 89 0 130 6 21 387 4 409 -18z m-891 -31 c7 -6 -26 -11 -72 -11 -45
0 -83 8 -83 18 0 19 136 13 155 -7z m445 -72 c0 -26 8 -36 23 -27 15 9 18 5 9
-9 -8 -13 -22 -19 -32 -13 -9 6 -27 -21 -40 -60 -68 -206 -446 -404 -815 -427
l-205 -13 0 80 c1 104 58 227 156 334 43 47 89 106 102 131 35 68 802 71 802
4z m-1037 -592 c23 -13 -4 -78 -43 -103 -30 -18 -44 -17 -69 8 -36 36 -39 60
-11 78 12 7 15 22 9 32 -11 17 76 6 114 -15z m1851 -141 c-9 -13 -12 -33 -6
-43 29 -47 -42 -31 -92 21 -55 56 -58 123 -4 103 15 -6 28 -2 28 10 0 12 21 2
46 -23 31 -29 40 -52 28 -68z m-2027 -41 c-34 -31 -43 -47 -22 -40 48 19 44 1
-5 -25 -31 -17 -39 -16 -35 4 3 14 -6 24 -20 21 -30 -6 -31 6 -4 56 11 22 34
39 51 39 17 0 25 8 19 18 -6 10 0 23 14 27 57 20 58 -48 2 -100z m1811 83 c75
-16 79 -34 11 -65 -28 -13 -47 -16 -41 -6 13 20 -793 31 -921 11 -65 -9 -95
-24 -102 -50 -5 -20 -24 -41 -42 -46 -210 -61 -671 -73 -692 -18 -8 22 8 54
48 95 l62 61 314 11 c478 17 1292 21 1363 7z m-133 -138 c9 -12 15 -9 15 7 0
22 6 23 28 4 20 -16 33 -16 41 -2 8 12 22 21 33 21 11 0 15 -9 8 -20 -7 -11 2
-20 19 -20 17 0 31 8 31 18 0 23 37 17 92 -13 24 -13 48 -18 55 -11 7 7 13 2
13 -11 0 -13 -12 -23 -28 -23 -15 0 -26 -11 -25 -25 2 -14 -6 -28 -17 -32 -11
-3 -30 -15 -42 -25 -12 -9 -27 -12 -34 -6 -10 11 -179 10 -744 -3 -99 -3 -198
-7 -220 -10 -97 -14 -212 1 -196 26 8 14 16 34 16 44 0 11 27 25 60 32 33 6
80 23 104 36 53 28 72 29 56 3 -8 -13 4 -14 34 -3 25 9 159 15 296 14 138 -2
273 3 300 10 62 17 86 15 105 -11z m-1609 -91 c31 0 30 -2 -2 -21 -39 -23
-102 32 -79 69 6 10 19 3 29 -14 10 -18 33 -33 52 -34z"/>
<path d="M2340 4244 c0 -22 146 -162 170 -163 11 -1 20 -10 20 -21 0 -12 82
-99 182 -195 188 -181 208 -217 208 -377 l0 -68 720 0 720 0 0 -1322 c0 -1188
-3 -1327 -33 -1377 -69 -118 -86 -121 -743 -121 l-599 0 -34 -52 c-19 -28 -28
-57 -21 -65 24 -24 1178 -28 1267 -4 101 27 254 164 236 211 -7 18 -4 27 7 20
44 -27 50 175 50 1670 0 1495 -6 1697 -50 1670 -11 -7 -15 0 -10 14 12 35 -25
80 -118 143 l-78 53 -947 0 c-521 0 -947 -7 -947 -16z m730 -84 c-7 -11 -3
-20 8 -20 11 0 25 9 32 20 7 12 65 15 146 7 74 -7 161 -11 194 -10 91 5 253 2
315 -5 31 -4 60 0 65 8 11 17 238 10 267 -8 11 -7 26 -4 32 7 8 12 30 13 62 1
27 -11 49 -14 49 -7 0 6 19 -10 42 -36 22 -26 34 -33 26 -17 -14 26 -11 26 18
3 18 -15 29 -36 23 -45 -7 -10 7 -44 29 -75 23 -32 36 -62 31 -67 -22 -23 -28
-303 -7 -329 17 -20 16 -27 -5 -27 -22 -1 -22 -4 0 -18 36 -22 -12 -41 -85
-33 -28 3 -52 -3 -52 -13 0 -11 -141 -14 -355 -6 -195 6 -467 15 -603 19 -253
8 -281 17 -282 94 0 39 -48 83 -68 62 -8 -7 -8 2 -1 21 16 40 -26 154 -56 154
-12 0 -13 -10 -2 -26 9 -14 1 -7 -18 15 -19 23 -55 63 -80 90 -25 28 -43 58
-40 67 4 9 -3 12 -13 5 -11 -6 -29 4 -40 24 -12 19 -21 27 -21 17 -1 -18 -80
74 -87 102 -2 8 32 18 75 21 43 4 83 11 88 16 20 19 325 9 313 -11z"/>
<path d="M3898 4045 c-2 -8 -2 -21 -1 -29 2 -8 -10 -10 -25 -4 -44 17 -113
-89 -108 -165 2 -37 14 -67 27 -67 25 0 121 -96 116 -117 -2 -7 2 -17 8 -23 6
-5 4 3 -5 18 -13 22 -8 26 18 15 20 -7 50 -14 69 -15 20 -1 14 -8 -17 -19 -34
-11 -17 -13 50 -5 55 6 103 19 107 29 4 10 20 32 37 48 81 81 13 288 -97 301
-26 2 -54 5 -63 6 -9 1 -11 11 -4 22 7 11 4 20 -7 20 -10 0 -24 -13 -30 -30
-7 -16 -21 -30 -32 -30 -11 0 -15 14 -8 30 6 17 1 30 -11 30 -12 0 -23 -7 -24
-15z m190 -68 c-4 -7 5 -23 20 -36 104 -85 23 -261 -121 -261 -150 0 -200 244
-61 300 49 19 175 17 162 -3z"/>
<path d="M3931 3873 c-30 -22 -32 -34 -13 -70 27 -51 86 -56 131 -12 74 75
-29 147 -118 82z"/>
<path d="M1953 3999 c-39 -56 -19 -117 42 -132 99 -25 159 62 94 134 -46 51
-99 49 -136 -2z m117 -11 c29 -30 29 -35 -4 -57 -54 -37 -98 -30 -101 17 -5
69 53 91 105 40z"/>
<path d="M2541 3551 c-39 -46 -17 -101 39 -101 37 0 52 12 57 48 10 71 -53
105 -96 53z"/>
<path d="M3292 3089 c-75 -83 -142 -146 -148 -140 -6 7 32 56 86 111 l97 99
-73 30 c-318 134 -563 -279 -302 -508 177 -155 469 -29 468 201 -1 130 -26
128 -146 -9 -121 -137 -254 -194 -254 -109 0 12 15 9 34 -7 23 -18 19 -5 -11
38 -25 36 -51 65 -57 65 -6 0 0 -13 14 -30 14 -16 17 -30 7 -29 -38 1 -80 89
-65 139 8 28 15 36 16 19 1 -17 38 -66 82 -109 l80 -78 195 189 c220 213 218
210 184 250 -40 49 -65 35 -207 -122z m-61 73 c-6 -10 -2 -22 9 -25 24 -8 -32
-97 -61 -97 -31 0 -22 64 14 103 35 39 57 50 38 19z m140 -82 c0 -22 -55 -94
-125 -164 l-126 -125 -74 73 c-59 60 -70 81 -55 114 l19 41 66 -42 c36 -23 61
-47 55 -53 -6 -6 -31 6 -56 27 l-45 38 44 -48 45 -48 119 113 c135 129 133
128 133 74z m-359 -23 c9 -14 5 -18 -9 -9 -20 12 -31 -8 -27 -49 1 -6 -16 -12
-37 -14 -53 -4 -49 41 6 68 25 12 47 23 49 25 2 1 10 -8 18 -21z"/>
<path d="M3652 3094 c-20 -15 -33 -44 -29 -65 13 -68 524 -59 534 9 3 26 -6
55 -20 64 -45 29 -444 22 -485 -8z m60 -45 c-9 -24 -2 -29 28 -19 23 7 40 4
40 -9 0 -11 -27 -21 -60 -21 -59 0 -74 32 -30 65 30 22 35 18 22 -16z m196 8
c-8 -13 -5 -18 6 -11 47 29 158 35 121 7 -19 -15 -28 -35 -20 -44 8 -10 -1 -6
-20 9 -23 18 -35 19 -35 4 0 -29 -113 -29 -131 0 -8 12 -2 30 13 40 40 25 83
22 66 -5z"/>
<path d="M3622 2744 c-38 -71 1 -84 257 -89 260 -5 306 10 275 92 -20 52 -504
49 -532 -3z"/>
<path d="M421 2442 c-26 -50 -4 -162 35 -177 38 -15 84 47 84 115 0 93 -80
134 -119 62z m99 -69 c-1 -59 -31 -101 -59 -84 -21 14 -25 118 -5 157 14 28
64 -29 64 -73z"/>
<path d="M3009 2442 c-136 -61 -197 -205 -150 -349 27 -81 132 -181 175 -164
15 6 23 2 16 -9 -7 -11 10 -20 39 -20 l51 0 0 290 c0 321 4 314 -131 252z
m-35 -222 c6 -22 23 -40 38 -40 16 0 28 -16 28 -36 0 -20 10 -46 22 -58 25
-25 8 -66 -28 -66 -15 0 -13 8 5 19 26 16 25 21 -6 33 -19 7 -31 25 -25 40 6
17 -1 22 -20 14 -17 -6 -26 -24 -20 -39 6 -15 3 -27 -6 -27 -10 0 -18 36 -18
80 -1 44 -7 89 -14 100 -7 11 -2 20 11 20 12 0 27 -18 33 -40z"/>
<path d="M3627 2371 c-29 -76 3 -88 247 -95 249 -6 292 5 282 72 -8 56 -508
77 -529 23z"/>
<path d="M228 2238 c-47 -53 26 -131 101 -107 71 23 171 23 174 1 14 -97 9
-124 -25 -127 -26 -2 -38 15 -44 61 -7 56 -8 53 -11 -19 -4 -101 36 -145 86
-95 26 26 31 58 23 148 -11 120 63 212 110 137 19 -32 -16 -77 -59 -77 -29 -1
-29 -3 -3 -20 44 -28 70 -25 123 18 88 71 -56 164 -147 95 -39 -30 -150 -27
-182 5 -35 35 -105 25 -146 -20z m157 -10 l62 -33 -68 -28 c-102 -43 -212 20
-124 71 47 28 57 27 130 -10z"/>
<path d="M3621 2043 c-45 -86 8 -105 279 -99 246 6 250 7 257 54 10 71 -25 81
-281 82 -209 0 -237 -4 -255 -37z m456 7 c-18 -18 -397 -25 -397 -7 0 9 92 17
203 17 112 0 199 -4 194 -10z m-162 -85 c-41 -4 -109 -4 -150 0 -41 5 -7 8 75
8 83 0 116 -3 75 -8z"/>
<path d="M3140 1590 l0 -150 -150 0 c-162 0 -166 -4 -122 -108 41 -98 111
-156 172 -142 38 8 43 6 20 -9 -22 -15 -4 -20 70 -21 303 0 411 420 142 548
-123 58 -132 50 -132 -118z m89 118 c26 -10 28 -19 7 -45 -13 -18 -17 -26 -7
-18 51 43 91 -49 47 -110 l-42 -60 48 -39 48 -39 -55 12 c-41 9 -55 4 -55 -19
0 -16 -10 -30 -21 -30 -12 0 -15 11 -6 25 11 20 8 20 -17 0 -25 -21 -36 -19
-58 8 -25 30 -24 33 7 21 32 -11 35 3 35 147 0 157 6 171 69 147z m63 -359
c-6 -18 -3 -26 8 -19 11 7 20 3 20 -9 0 -11 -23 -21 -51 -21 -28 0 -47 -7 -42
-15 5 -8 -22 -16 -59 -17 -59 -2 -101 28 -48 35 21 2 51 9 75 17 8 3 22 4 30
2 8 -1 15 12 15 28 0 17 14 30 32 30 21 0 28 -11 20 -31z"/>
<path d="M3628 1671 c-35 -91 -11 -101 250 -101 261 0 307 16 276 97 -18 46
-509 50 -526 4z m407 -85 c-30 -5 -84 -5 -120 0 -36 4 -11 8 55 8 66 0 95 -4
65 -8z"/>
<path d="M3633 1347 c-23 -23 -14 -102 12 -111 173 -57 540 9 509 91 -13 34
-489 52 -521 20z m376 -26 c7 -10 -31 -14 -94 -7 -138 14 -147 26 -20 26 57 0
108 -8 114 -19z"/>
<path d="M3621 943 c-45 -85 9 -105 267 -99 255 6 314 31 253 104 -42 51 -492
47 -520 -5z"/>
</g>
</svg>
